<svg width="140" height="140" viewBox="0 0 140 140" fill="none" xmlns="http://www.w3.org/2000/svg">
<path d="M122.77 45.99C115.61 59.38 103.74 74.68 89.34 89.09C120.41 86.14 139.34 76.6 139.34 69.67C139.34 55.95 135.37 43.16 128.52 32.37C127.42 36.22 125.58 40.72 122.77 45.99Z" fill="#E87722"/>
<path d="M69.67 90C71.1 90 72.51 89.99 73.91 89.96C76.67 87.44 79.43 84.82 82.12 82.13C95.9 68.36 107.19 53.84 113.92 41.26C121.07 27.91 120.31 21.79 118.93 20.41C106.33 7.8 88.91 0 69.67 0C31.19 0 0 31.19 0 69.67C0 77.96 27.12 90 69.67 90Z" fill="#A1DA8E"/>
<path d="M124.12 92.34C109.5 97.3 90.16 100.03 69.67 100.03C49.18 100.03 29.84 97.3 15.22 92.34C9.78004 90.49 5.46004 88.51 2.04004 86.47C9.56004 116.83 36.98 139.34 69.67 139.34C102.36 139.34 129.78 116.83 137.3 86.47C133.88 88.51 129.57 90.5 124.12 92.34Z" fill="#6FA491"/>
</svg>
