<svg width="113" height="26" viewBox="0 0 113 26" fill="none" xmlns="http://www.w3.org/2000/svg">
<g clip-path="url(#clip0_8346_899)">
<path d="M46.0513 11.9173H37.548V3.94457H34.6401V22.0499H37.548V14.469H46.0513V22.0499H48.9346V3.94457H46.0513V11.9173Z" fill="#575756"/>
<path d="M57.4492 8.61157C53.53 8.61157 50.4752 11.5031 50.4752 15.4644C50.4752 19.4257 53.5808 22.3414 57.4492 22.3414C61.3176 22.3414 64.3987 19.474 64.3987 15.4644C64.3987 11.4549 61.3421 8.61157 57.4492 8.61157ZM57.4492 19.7897C55.1082 19.7897 53.3831 17.9419 53.3831 15.4644C53.3831 12.987 55.1082 11.1633 57.4492 11.1633C59.7902 11.1633 61.5153 12.9851 61.5153 15.4644C61.5153 17.9437 59.7657 19.7897 57.4492 19.7897Z" fill="#575756"/>
<path d="M68.7228 3.94271H65.9374V22.0499H68.7228V3.94271Z" fill="#575756"/>
<path d="M95.7072 10.5801V8.90314H93.0461V22.0499H95.8315V14.4671C95.8315 12.402 97.0632 11.2357 98.9127 11.2357H100.071V8.73229H99.2573C97.6301 8.73229 96.3984 9.26714 95.7091 10.5801H95.7072Z" fill="#575756"/>
<path d="M74.951 17.628V11.3824H77.9832V8.90314H74.951V5.889H72.1656V8.90314H69.8246V11.3824H72.1656V17.7506C72.1656 20.5697 73.7683 22.1984 76.5763 22.1984C77.0208 22.1984 77.6366 22.126 78.0792 22.0517V19.695C77.7591 19.7433 77.4144 19.7674 77.1677 19.7674C75.565 19.7674 74.9491 18.9651 74.9491 17.628H74.951Z" fill="#575756"/>
<path d="M90.6467 18.9744V13.2043C90.6467 10.4817 88.4281 8.61157 85.2736 8.61157C82.7348 8.61157 80.4918 9.97286 79.729 11.8931L82.0455 13.0353C82.5635 11.8207 83.7217 10.9943 85.2001 10.9943C86.8028 10.9943 87.8613 11.9173 87.8613 13.2061V13.7169L83.6219 14.3966C80.5407 14.9073 79.1113 16.4617 79.1113 18.577C79.1113 20.8613 80.9344 22.3433 83.6464 22.3433C85.4939 22.3433 86.9742 21.6877 87.9837 20.5214C88.2605 21.3646 89.0911 22.0517 90.0949 22.0517H91.7296V19.5724H91.2513C90.916 19.5724 90.6448 19.305 90.6448 18.9744H90.6467ZM87.8613 16.5824C87.8613 18.5993 86.3339 20.1797 84.0908 20.1797C82.8836 20.1797 82.021 19.4759 82.021 18.4786C82.021 17.4813 82.6859 16.7533 84.1643 16.51L87.8613 15.8786V16.5824Z" fill="#575756"/>
<path d="M112.522 19.5724C112.186 19.5724 111.915 19.305 111.915 18.9744V13.2043C111.915 10.4817 109.697 8.61157 106.542 8.61157C104.003 8.61157 101.76 9.97286 100.998 11.8931L103.314 13.0353C103.832 11.8207 104.99 10.9943 106.469 10.9943C108.071 10.9943 109.13 11.9173 109.13 13.2061V13.7169L104.89 14.3966C101.809 14.9073 100.38 16.4617 100.38 18.577C100.38 20.8613 102.203 22.3433 104.915 22.3433C106.762 22.3433 108.243 21.6877 109.252 20.5214C109.529 21.3646 110.36 22.0517 111.363 22.0517H112.998V19.5724H112.52H112.522ZM109.13 16.5824C109.13 18.5993 107.602 20.1797 105.359 20.1797C104.152 20.1797 103.29 19.4759 103.29 18.4786C103.29 17.4813 103.954 16.7533 105.433 16.51L109.13 15.8786V16.5824Z" fill="#575756"/>
<path d="M23.1217 8.60229C21.7732 11.089 19.5377 13.9304 16.8257 16.6066C22.6772 16.0587 26.2424 14.287 26.2424 13C26.2424 10.452 25.4947 8.07671 24.2046 6.07286C23.9974 6.78786 23.6509 7.62357 23.1217 8.60229Z" fill="#E87722"/>
<path d="M13.1212 16.7756C13.3905 16.7756 13.6561 16.7737 13.9197 16.7681C14.4395 16.3001 14.9593 15.8136 15.4659 15.314C18.0612 12.7567 20.1875 10.0601 21.4549 7.72386C22.8015 5.24457 22.6584 4.108 22.3985 3.85171C20.0255 1.50986 16.7447 0.061285 13.1212 0.061285C5.87412 0.061285 0 5.85371 0 13C0 14.5396 5.1076 16.7756 13.1212 16.7756Z" fill="#A1DA8E"/>
<path d="M23.3759 17.2101C20.6225 18.1313 16.9801 18.6383 13.1212 18.6383C9.26223 18.6383 5.61987 18.1313 2.86643 17.2101C1.8419 16.8666 1.0283 16.4989 0.384199 16.12C1.80047 21.7583 6.96457 25.9387 13.1212 25.9387C19.2778 25.9387 24.4419 21.7583 25.8582 16.12C25.2141 16.4989 24.4023 16.8684 23.3759 17.2101Z" fill="#6FA491"/>
</g>
<defs>
<clipPath id="clip0_8346_899">
<rect width="113" height="26" fill="white"/>
</clipPath>
</defs>
</svg>
